Coordinates
version=1
nRows=12
nColumns=42
inDegrees=yes

Units are S.I. units (second, meters, Newtons, ...)
If the header above contains a line with 'inDegrees', this indicates whether rotational values are in degrees (yes) or radians (no).

endheader
time	pelvis_tilt	pelvis_list	pelvis_rotation	pelvis_tx	pelvis_ty	pelvis_tz	hip_flexion_r	hip_adduction_r	hip_rotation_r	knee_angle_r	knee_adduction_r	knee_angle_r_beta	ankle_angle_r	subtalar_angle_r	mtp_angle_r	hip_flexion_l	hip_adduction_l	hip_rotation_l	knee_angle_l	knee_adduction_l	knee_angle_l_beta	ankle_angle_l	subtalar_angle_l	mtp_angle_l	lumbar_extension	lumbar_bending	lumbar_rotation	arm_flex_r	arm_add_r	arm_rot_r	elbow_flex_r	pro_sup_r	wrist_flex_r	wrist_dev_r	arm_flex_l	arm_add_l	arm_rot_l	elbow_flex_l	pro_sup_l	wrist_flex_l	wrist_dev_l
      1.78000000	      4.56654714	     -1.40061480	      3.87973183	      1.14119309	      0.96896539	     -0.21969639	     23.69061312	     -3.24244533	    -11.93692807	     13.32144955	      7.95213445	      0.23250316	     -1.45729656	     -5.86976819	     -7.50181031	    -22.49699270	     -7.48121277	      2.26536151	     17.02119867	     12.19440736	      0.29707596	     15.09281157	      2.62965178	     -7.50181031	    -15.71498222	      2.66458431	     -8.47214287	    -13.10087887	     -4.57672490	    -23.55574604	      9.19797358	     90.00000001	      0.00000000	      0.00000000	     19.45328179	    -23.42178053	     -3.16946499	     51.23468668	     90.00000001	      0.00000000	      0.00000000
      1.79000000	      4.54879553	     -1.93469216	      4.00959491	      1.15762515	      0.96879331	     -0.21910461	     23.85427284	     -2.66141397	    -11.75601568	     14.94816349	      7.78722515	      0.26089467	     -2.99547478	     -6.61920917	     -7.50177371	    -22.53108435	     -8.18836297	      2.45970093	     18.60997267	     12.16542460	      0.32480530	     13.68497359	      2.06573483	     -7.50177371	    -15.53130588	      3.43380708	     -8.49917168	    -12.94046431	     -4.82580850	    -23.59409177	      9.21821716	     90.00000001	      0.00000000	      0.00000000	     18.79975830	    -23.17873501	     -3.45809401	     51.29319288	     90.00000001	      0.00000000	      0.00000000
      1.80000000	      4.55958008	     -2.52482044	      4.03641881	      1.17403893	      0.96931784	     -0.21841900	     23.77368210	     -1.95346436	    -10.37642793	     16.15534256	      7.91001641	      0.28196392	     -5.42099813	     -9.88103827	     -7.50161863	    -22.52828781	     -8.92888307	      2.80066293	     20.20955756	     12.29005395	      0.35272332	     11.73187016	      0.78731085	     -7.50161863	    -15.40059209	      4.25788484	     -8.48466169	    -12.43956638	     -5.10999927	    -24.15298498	      8.83812293	     90.00000001	      0.00000000	      0.00000000	     18.01275168	    -22.74220192	     -4.38034777	     51.27785117	     90.00000001	      0.00000000	      0.00000000
      1.81000000	      4.68462700	     -3.11372588	      4.03309342	      1.19058224	      0.97035992	     -0.21771227	     23.73898152	     -1.31401736	    -10.12532610	     17.92059689	      7.78247126	      0.31277342	     -6.54232358	    -10.51081674	     -7.50159429	    -22.41138916	     -9.67950597	      2.62209364	     22.25047904	     12.31065006	      0.38834412	      9.44025500	      0.06768356	     -7.50159429	    -15.38581542	      5.07079146	     -8.33050362	    -12.10472334	     -5.37454020	    -24.21598213	      8.88978518	     90.00000001	      0.00000000	      0.00000000	     17.29469554	    -22.42383574	     -4.51320460	     50.98753271	     90.00000001	      0.00000000	      0.00000000
      1.82000000	      4.77709654	     -3.67946845	      3.93065202	      1.20696804	      0.97192583	     -0.21691892	     23.54460871	     -0.62768091	     -8.95226718	     19.28606367	      7.92119750	      0.33660531	     -8.16702465	    -12.94881691	     -7.50150051	    -22.06388218	    -10.38436271	      2.42614951	     24.54534147	     12.41189036	      0.42839702	      6.69190227	     -1.17057917	     -7.50150051	    -15.37381397	      5.83660098	     -8.13880130	    -11.51549126	     -5.69394375	    -24.48488916	      8.69504025	     90.00000001	      0.00000000	      0.00000000	     16.54169237	    -21.82400204	     -5.36027481	     50.46277401	     90.00000001	      0.00000000	      0.00000000
      1.83000000	      4.94294898	     -4.22179061	      3.77359434	      1.22328436	      0.97390409	     -0.21607615	     23.24816265	      0.05118128	     -8.15705174	     20.70512706	      7.98251096	      0.36137264	     -9.02189554	    -14.14624934	     -7.50144349	    -21.53696483	    -11.09136156	      1.79938971	     27.25907163	     12.41332064	      0.47576055	      3.50965792	     -2.22202251	     -7.50144349	    -15.46351836	      6.54929134	     -7.82760304	    -10.93790058	     -6.01669887	    -24.59234049	      8.68259136	     90.00000001	      0.00000000	      0.00000000	     15.80518256	    -21.33619829	     -5.61034337	     49.88835903	     90.00000001	      0.00000000	      0.00000000
      1.84000000	      5.19314731	     -4.74971995	      3.56967441	      1.23954047	      0.97625866	     -0.21501882	     22.72009629	      0.79714779	     -7.44242122	     21.89636589	      8.01778620	      0.38216368	     -9.30645493	    -15.02671808	     -7.50140829	    -20.90661822	    -11.83830489	      0.97516550	     30.20372230	     12.38171008	      0.52715440	     -0.09072522	     -3.12361765	     -7.50140829	    -15.65807225	      7.19992418	     -7.43489356	    -10.31410543	     -6.27033825	    -24.61483727	      8.71365061	     90.00000001	      0.00000000	      0.00000000	     15.02039898	    -20.86361641	     -5.82637073	     49.22712328	     90.00000001	      0.00000000	      0.00000000
      1.85000000	      5.47661495	     -5.25644602	      3.43202827	      1.25560386	      0.97885223	     -0.21387772	     21.99350990	      1.55914096	     -6.86380306	     22.80377264	      8.03208985	      0.39800091	     -9.07979665	    -15.65284193	     -7.50138846	    -20.06461130	    -12.67312286	      0.17388093	     33.40286619	     12.34245386	      0.58298999	     -3.97782886	     -3.83414098	     -7.50138846	    -15.90027321	      7.80078177	     -7.10689658	     -9.63976151	     -6.51836883	    -24.59576087	      8.82612119	     90.00000001	      0.00000000	      0.00000000	     14.21522597	    -20.40783694	     -5.93045401	     48.51442660	     90.00000001	      0.00000000	      0.00000000
      1.86000000	      5.67397965	     -5.67034422	      3.13878120	      1.27130247	      0.98146510	     -0.21259304	     21.25010225	      2.29794183	     -6.11473051	     23.47554592	      8.08624470	      0.40972557	     -9.04760946	    -16.21027597	     -7.50134841	    -18.91352580	    -13.37780610	     -1.00564046	     36.90721184	     12.02610664	      0.64415236	     -7.89818865	     -4.73487341	     -7.50134841	    -16.09525130	      8.23824800	     -6.56808192	     -8.86084596	     -6.77086782	    -24.61460906	      8.86398913	     90.00000001	      0.00000000	      0.00000000	     13.62383819	    -19.79300591	     -6.22307550	     47.41828370	     90.00000001	      0.00000000	      0.00000000
      1.87000000	      5.86594518	     -6.06960959	      2.89427306	      1.28680236	      0.98411195	     -0.21111679	     20.39044760	      3.06768076	     -5.70717320	     23.93592759	      8.00619819	      0.41776075	     -8.55260183	    -16.39981084	     -7.50130882	    -17.58944453	    -14.17025766	     -2.11786304	     40.49132744	     11.63509530	      0.70670698	    -11.68583978	     -5.35623227	     -7.50130882	    -16.29408374	      8.61569729	     -6.07281964	     -8.05974690	     -6.96375598	    -24.65751008	      9.02294910	     90.00000001	      0.00000000	      0.00000000	     12.98027175	    -19.27438974	     -6.36211587	     46.29753840	     90.00000001	      0.00000000	      0.00000000
      1.88000000	      5.98746711	     -6.44367811	      2.68589272	      1.30202728	      0.98664778	     -0.20950990	     19.52565717	      3.85644630	     -5.49303379	     24.23500540	      7.80227421	      0.42298064	     -7.83738028	    -16.39829980	     -7.50128502	    -16.04502011	    -15.01805535	     -3.14671284	     44.10586625	     11.17317128	      0.76979259	    -15.09239495	     -5.91744825	     -7.50128502	    -16.42223307	      8.93274509	     -5.61554604	     -7.23590421	     -7.13036344	    -24.65761454	      9.27397769	     90.00000001	      0.00000000	      0.00000000	     12.26224805	    -18.83746613	     -6.33675952	     45.29009316	     90.00000001	      0.00000000	      0.00000000
      1.89000000	      6.10563065	     -6.67549062	      2.61724110	      1.31698462	      0.98908499	     -0.20799058	     18.59474005	      4.43996852	     -5.59185297	     24.42900045	      7.56663463	      0.42636649	     -6.80290546	    -16.11424267	     -7.50126192	    -14.34731391	    -15.74039548	     -3.79064830	     47.65402137	     10.64653520	      0.83171957	    -17.61192382	     -6.26105670	     -7.50126192	    -16.55135518	      9.08141422	     -5.27541202	     -6.47345786	     -7.21223122	    -24.55106795	      9.76602937	     90.00000001	      0.00000000	      0.00000000	     11.55342309	    -18.45762637	     -6.24239632	     44.38149460	     90.00000001	      0.00000000	      0.00000000
